<?xml version="1.0" encoding="utf-8"?>
<!-- Generator: Adobe Illustrator 16.0.0, SVG Export Plug-In . SVG Version: 6.00 Build 0)  -->
<!DOCTYPE svg PUBLIC "-//W3C//DTD SVG 1.1//EN" "http://www.w3.org/Graphics/SVG/1.1/DTD/svg11.dtd">
<svg version="1.1" id="Calque_1" xmlns="http://www.w3.org/2000/svg" xmlns:xlink="http://www.w3.org/1999/xlink" x="0px" y="0px"
	 width="1000px" height="1000px" viewBox="0 0 1000 1000" enable-background="new 0 0 1000 1000" xml:space="preserve">
<path style="fill:none;stroke:#000000;stroke-width:1px;stroke-linecap:butt;stroke-linejoin:miter;stroke-opacity:1" d="m 346.54533,465.95559 -47.92226,-0.24702 1.07043,1.48213 2.05852,0.98809 2.66779,1.07595 2.72828,0.98809 3.6614,2.05299 2.38788,1.64682 2.6349,2.30554 4.19937,5.43448 0.73555,2.18478 -0.2415,9.09589 0.24702,1.39979 19.59707,-0.49405 5.02278,0.65873 4.19937,1.48213 3.04661,1.07043 3.54065,2.14086 2.55256,1.64681 2.38787,2.05851 3.12895,2.79959 2.19245,2.96824 1.3606,2.91118 0.90652,2.00919 1.088,-2.23638 1.75271,-3.07515 2.17876,-2.72567 2.40008,-2.25033 2.11879,-1.63577 3.21128,-2.55256 2.05852,-1.48214 4.14993,-1.99272 5.2369,-1.05388 4.8581,-0.24702 19.35006,0 0,-4.19938 0.0823,-6.66959 1.89383,-3.87001 2.30554,-2.30554 3.12894,-2.47022 4.36406,-3.0466 3.62299,-1.89383 2.30553,-1.3998 2.16824,-1.35034 1.53709,-1.53158 -46.85182,-0.0823 0.0823,3.29363 0.0823,1.15277 -0.92762,1.81701 -1.44923,2.14637 -2.39891,1.63578 -3.13998,1.27904 -9.94135,0.28543 -0.0108,-2.28367 -0.16469,-3.80954 0.0746,-2.42966 -1.93563,0.0418 -0.60216,4.36456 -1.93911,0.0218 -2.97069,-0.0446 -0.36707,-3.84769 -2.22319,0 -0.24703,7.9047 -7.98704,0 -2.14086,-0.98809 -2.38787,-1.07042 -1.56448,-1.72916 -1.48213,-1.72915 -1.15277,-2.55256 0,0" id="path2985" />
</svg>